#!OML:ASF E:\CV Data\Top Level 1\Subject 1\Session 1\player.ASF
:FULLY-SPECIFIED
:DEGREES
688
root 8.02728 17.4176 -10.5143 -148.362 -95.1269 -208.505
lowerback 6.85469 0.848941 2.86241
upperback 1.16607 1.35988 2.99323
thorax -2.6448 0.633682 1.36016
lowerneck -15.3536 14.6689 -2.70751
upperneck 16.5402 20.6179 0.129036
head 7.27821 9.67427 2.5707
rclavicle -3.37934e-015 -3.18055e-015
rhumerus -37.5036 36.2423 -94.2888
rradius 123.031
rwrist -31.2779
rhand -29.8693 14.5512
rfingers 7.12502
rthumb -3.19121 -15.4046
lclavicle -3.37934e-015 -3.18055e-015
lhumerus -26.0404 -58.248 115.045
lradius 90.3756
lwrist -0.746797
lhand -31.328 9.69451
lfingers 7.12502
lthumb -4.59989 39.6246
rfemur -12.3258 5.38881 17.2686
rtibia 32.7592
rfoot -22.2993 -2.76932
rtoes -0.692979
lfemur -12.0859 1.78444 -9.94449
ltibia 26.138
lfoot -13.916 -1.87403
ltoes -3.97927
689
root 8.02041 17.4238 -10.5129 -147.629 -95.0839 -209.145
lowerback 6.79052 0.839772 2.8618
upperback 1.13773 1.34625 2.98379
thorax -2.63799 0.627223 1.35264
lowerneck -15.3663 14.685 -2.68416
upperneck 16.5727 20.6483 0.0717592
head 7.29974 9.68166 2.5575
rclavicle -6.85807e-015 -7.95139e-015
rhumerus -37.7779 36.1824 -94.6418
rradius 123.02
rwrist -31.2018
rhand -29.8814 14.5965
rfingers 7.12502
rthumb -3.20288 -15.3591
lclavicle -6.85807e-015 -7.95139e-015
lhumerus -26.4033 -58.137 115.235
lradius 90.4861
lwrist -0.84145
lhand -31.3264 9.66774
lfingers 7.12502
lthumb -4.59833 39.5978
rfemur -12.3361 5.42218 17.2937
rtibia 32.5991
rfoot -22.2297 -2.76287
rtoes -0.690091
lfemur -12.0578 1.71872 -9.91993
ltibia 25.9843
lfoot -13.8438 -1.74392
ltoes -3.96627
690
root 8.01323 17.43 -10.5119 -146.83 -95.0468 -209.85
lowerback 6.7243 0.833449 2.86262
upperback 1.10768 1.33655 2.98066
thorax -2.63194 0.622663 1.3505
lowerneck -15.376 14.6966 -2.66825
upperneck 16.6107 20.6739 0.0167907
head 7.32163 9.68637 2.54547
rclavicle 3.23025e-014 3.18055e-015
rhumerus -38.055 36.1206 -94.9898
rradius 122.998
rwrist -31.1356
rhand -29.8892 14.6453
rfingers 7.12502
rthumb -3.21046 -15.3102
lclavicle 3.23025e-014 3.18055e-015
lhumerus -26.7679 -58.0414 115.396
lradius 90.6208
lwrist -0.908343
lhand -31.3185 9.66045
lfingers 7.12502
lthumb -4.59065 39.5907
rfemur -12.3426 5.45395 17.3277
rtibia 32.4359
rfoot -22.1616 -2.75256
rtoes -0.675037
lfemur -12.029 1.63223 -9.88613
ltibia 25.8314
lfoot -13.7706 -1.59442
ltoes -3.96149
691
root 8.00568 17.4361 -10.5113 -145.989 -95.0152 -210.596
lowerback 6.65173 0.82813 2.85922
upperback 1.07839 1.32759 2.98171
thorax -2.62176 0.61853 1.35506
lowerneck -15.3876 14.7066 -2.65902
upperneck 16.653 20.6977 -0.0310048
head 7.3438 9.69034 2.53651
rclavicle 1.18277e-014 1.82882e-014
rhumerus -38.3246 36.0563 -95.3342
rradius 122.968
rwrist -31.0876
rhand -29.8724 14.6687
rfingers 7.12502
rthumb -3.19424 -15.2871
lclavicle 1.18277e-014 1.82882e-014
lhumerus -27.1138 -57.9564 115.511
lradius 90.7729
lwrist -0.943211
lhand -31.2942 9.64703
lfingers 7.12502
lthumb -4.5672 39.5778
rfemur -12.3473 5.48406 17.3679
rtibia 32.2704
rfoot -22.0947 -2.73831
rtoes -0.640791
lfemur -12.0025 1.54598 -9.84525
ltibia 25.6813
lfoot -13.6985 -1.44642
ltoes -3.94965
692
root 7.99774 17.442 -10.511 -145.218 -94.9893 -211.272
lowerback 6.57268 0.822499 2.84587
upperback 1.0513 1.31713 2.98364
thorax -2.60591 0.613814 1.36633
lowerneck -15.3992 14.7145 -2.6506
upperneck 16.6934 20.7184 -0.0767049
head 7.36507 9.69307 2.52785
rclavicle 5.1684e-015 1.82882e-014
rhumerus -38.5831 35.9893 -95.671
rradius 122.929
rwrist -31.0535
rhand -29.842 14.6744
rfingers 7.12502
rthumb -3.16489 -15.2819
lclavicle 5.1684e-015 1.82882e-014
lhumerus -27.4391 -57.8828 115.586
lradius 90.936
lwrist -0.951488
lhand -31.2637 9.64902
lfingers 7.12502
lthumb -4.53781 39.5804
rfemur -12.348 5.50717 17.4049
rtibia 32.1038
rfoot -22.0299 -2.7238
rtoes -0.605455
lfemur -11.9795 1.4715 -9.80797
ltibia 25.5353
lfoot -13.6294 -1.3105
ltoes -3.9714
693
root 7.98941 17.4477 -10.5107 -144.43 -94.9716 -211.971
lowerback 6.4932 0.816164 2.84297
upperback 1.02678 1.30623 2.98265
thorax -2.58684 0.608787 1.36876
lowerneck -15.4144 14.7215 -2.6359
upperneck 16.7325 20.7353 -0.116302
head 7.38652 9.69502 2.52007
rclavicle -1.70955e-014 -1.35174e-014
rhumerus -38.8301 35.9153 -96.0074
rradius 122.88
rwrist -31.0279
rhand -29.7996 14.6664
rfingers 7.12502
rthumb -3.12392 -15.2905
lclavicle -1.70955e-014 -1.35174e-014
lhumerus -27.7607 -57.8087 115.668
lradius 91.0758
lwrist -0.969277
lhand -31.2376 9.65765
lfingers 7.12502
lthumb -4.51256 39.5896
rfemur -12.341 5.52414 17.4467
rtibia 31.9366
rfoot -21.9696 -2.69982
rtoes -0.532367
lfemur -11.9543 1.39349 -9.7654
ltibia 25.3939
lfoot -13.561 -1.17591
ltoes -3.98819
694
root 7.98073 17.4533 -10.5106 -143.735 -94.9609 -212.579
lowerback 6.41432 0.808611 2.8431
upperback 1.0037 1.29381 2.97367
thorax -2.56634 0.603017 1.36134
lowerneck -15.4325 14.7252 -2.62353
upperneck 16.7673 20.745 -0.140437
head 7.40506 9.69528 2.5163
rclavicle 1.02374e-014 1.66979e-014
rhumerus -39.0664 35.8335 -96.3463
rradius 122.82
rwrist -30.999
rhand -29.7577 14.649
rfingers 7.12502
rthumb -3.08347 -15.3084
lclavicle 1.02374e-014 1.66979e-014
lhumerus -28.0814 -57.7345 115.762
lradius 91.1885
lwrist -0.998761
lhand -31.2192 9.71151
lfingers 7.12502
lthumb -4.49476 39.6438
rfemur -12.3266 5.53396 17.484
rtibia 31.7692
rfoot -21.9115 -2.67537
rtoes -0.459396
lfemur -11.9278 1.30546 -9.72669
ltibia 25.2552
lfoot -13.4924 -1.04364
ltoes -3.98199
695
root 7.97173 17.4588 -10.5105 -143.124 -94.9574 -213.106
lowerback 6.33608 0.800705 2.84809
upperback 0.982089 1.28112 2.95777
thorax -2.5444 0.59711 1.34406
lowerneck -15.4506 14.7241 -2.61094
upperneck 16.7916 20.7461 -0.157641
head 7.41947 9.69274 2.51302
rclavicle -1.07344e-014 1.90833e-014
rhumerus -39.29 35.7378 -96.6859
rradius 122.746
rwrist -30.9582
rhand -29.7221 14.6373
rfingers 7.12502
rthumb -3.0491 -15.3206
lclavicle -1.07344e-014 1.90833e-014
lhumerus -28.3964 -57.6605 115.857
lradius 91.2826
lwrist -1.03022
lhand -31.1917 9.76113
lfingers 7.12502
lthumb -4.46828 39.694
rfemur -12.3048 5.54043 17.5176
rtibia 31.6012
rfoot -21.8553 -2.64936
rtoes -0.371768
lfemur -11.8995 1.19723 -9.69091
ltibia 25.118
lfoot -13.4211 -0.906067
ltoes -3.93411
696
root 7.96255 17.4643 -10.5107 -142.62 -94.9628 -213.533
lowerback 6.26356 0.792687 2.84757
upperback 0.961531 1.26815 2.94089
thorax -2.52468 0.591097 1.32878
lowerneck -15.4697 14.7185 -2.60167
upperneck 16.8093 20.7407 -0.170596
head 7.43112 9.68768 2.51041
rclavicle 2.28602e-015 5.56597e-015
rhumerus -39.5039 35.6359 -97.0157
rradius 122.658
rwrist -30.9092
rhand -29.7041 14.6492
rfingers 7.12502
rthumb -3.0317 -15.309
lclavicle 2.28602e-015 5.56597e-015
lhumerus -28.7073 -57.5858 115.959
lradius 91.363
lwrist -1.05879
lhand -31.1491 9.78908
lfingers 7.12502
lthumb -4.42708 39.7228
rfemur -12.2735 5.54444 17.5494
rtibia 31.4348
rfoot -21.8012 -2.62769
rtoes -0.286798
lfemur -11.8644 1.0452 -9.65374
ltibia 24.98
lfoot -13.3451 -0.761001
ltoes -3.73759
